<svg xmlns="http://www.w3.org/2000/svg" version="1.1" xmlns:xlink="http://www.w3.org/1999/xlink" xmlns:svgjs="http://svgjs.dev/svgjs" width="1500" height="1500" viewBox="0 0 1500 1500"><g transform="matrix(1,0,0,1,0,1.1368683772161603e-13)"><svg viewBox="0 0 280 280" data-background-color="#ffffff" preserveAspectRatio="xMidYMid meet" height="1500" width="1500" xmlns="http://www.w3.org/2000/svg" xmlns:xlink="http://www.w3.org/1999/xlink"><g id="tight-bounds" transform="matrix(1,0,0,1,0,-2.842170943040401e-14)"><svg viewBox="0 0 280 280" height="280" width="280"><g><svg viewBox="0 0 280 280" height="280" width="280"><g><svg viewBox="0 0 280 280" height="280" width="280"><g id="textblocktransform"><svg viewBox="0 0 280 280" height="280" width="280" id="textblock"><g><svg viewBox="0 0 280 280" height="280" width="280"><g transform="matrix(1,0,0,1,87.24919348968513,74.00336708925556)"><svg viewBox="0 0 105.50161302062973 131.99326582148888" height="131.99326582148888" width="105.50161302062973"><g id="icon-0"><svg xmlns="http://www.w3.org/2000/svg" xmlns:xlink="http://www.w3.org/1999/xlink" version="1.1" x="0" y="0" viewBox="14.152000000000001 5.151 71.696 89.699" enable-background="new 0 0 100 100" xml:space="preserve" height="131.99326582148888" width="105.50161302062973" class="icon-xg-0" data-fill-palette-color="accent" id="xg-0"><g fill="#50a060" data-fill-palette-color="accent"><path fill-rule="evenodd" clip-rule="evenodd" d="M50.001 5.151c-19.766 0-35.848 16.081-35.849 35.847 0 8.858 3.618 17.61 10.463 25.309L50.001 94.85l25.383-28.543c6.845-7.699 10.464-16.451 10.464-25.309C85.848 21.231 69.766 5.151 50.001 5.151zM74.006 65.08L50.001 92.07 25.994 65.08c-6.539-7.357-9.995-15.684-9.995-24.083C16 22.25 31.253 6.997 50.001 6.997c18.747 0 34 15.253 34 34.001C84.001 49.396 80.545 57.723 74.006 65.08z" fill="#50a060" data-fill-palette-color="accent"></path><path fill-rule="evenodd" clip-rule="evenodd" d="M50.001 13.268c-6.676 0-12.806 2.372-17.597 6.314l-0.021-0.013-0.516 0.445c-2.522 2.182-4.602 4.785-6.176 7.658-0.03 0.056-0.064 0.11-0.095 0.167-0.361 0.67-0.688 1.358-0.991 2.055-0.072 0.164-0.148 0.325-0.218 0.491-0.27 0.651-0.509 1.315-0.729 1.986-0.07 0.214-0.143 0.426-0.207 0.642-0.202 0.673-0.376 1.354-0.527 2.042-0.045 0.21-0.093 0.418-0.135 0.631-0.142 0.729-0.253 1.464-0.337 2.207-0.019 0.169-0.038 0.338-0.055 0.509-0.059 0.622-0.104 1.247-0.121 1.875v0.511c0 0.071-0.01 0.14-0.01 0.21 0 0.075 0.01 0.15 0.012 0.225v0.527c0.009 0.333 0.052 0.66 0.073 0.992 0.028 0.453 0.051 0.908 0.101 1.359 0.047 0.421 0.12 0.835 0.185 1.253 0.075 0.472 0.143 0.945 0.24 1.411 0.08 0.376 0.185 0.745 0.28 1.117 0.124 0.492 0.244 0.986 0.396 1.47 0.107 0.336 0.238 0.664 0.356 0.996 0.18 0.5 0.351 1.003 0.56 1.491 0.135 0.316 0.295 0.621 0.441 0.934 0.228 0.484 0.447 0.973 0.703 1.443 0.181 0.33 0.39 0.646 0.583 0.969 0.258 0.434 0.504 0.871 0.786 1.289 0.274 0.406 0.582 0.789 0.879 1.182 0.237 0.316 0.459 0.645 0.711 0.949 0.569 0.691 1.174 1.361 1.815 2.002 0.645 0.643 1.316 1.252 2.012 1.824 0.345 0.285 0.711 0.533 1.067 0.799 0.36 0.268 0.71 0.551 1.08 0.801 0.459 0.309 0.938 0.578 1.413 0.859 0.29 0.17 0.568 0.359 0.862 0.516 0.513 0.277 1.043 0.516 1.571 0.76 0.275 0.127 0.543 0.271 0.822 0.389 0.528 0.225 1.071 0.406 1.613 0.596 0.298 0.104 0.589 0.227 0.891 0.32 0.519 0.16 1.049 0.285 1.578 0.414 0.341 0.084 0.677 0.184 1.021 0.254 0.491 0.102 0.992 0.168 1.492 0.244 0.396 0.063 0.789 0.133 1.189 0.176 0.456 0.049 0.921 0.066 1.383 0.092 0.371 0.021 0.738 0.066 1.112 0.074h0.397c0.035 0 0.068 0.006 0.104 0.006 0.035 0 0.068-0.006 0.104-0.006h0.405 0.007c0.683-0.014 1.356-0.059 2.028-0.119 0.149-0.014 0.297-0.029 0.446-0.047 0.787-0.084 1.568-0.193 2.34-0.344 0.121-0.025 0.241-0.053 0.361-0.078 0.742-0.154 1.476-0.336 2.201-0.549 0.104-0.031 0.208-0.063 0.312-0.092 0.682-0.211 1.354-0.459 2.02-0.723 0.209-0.084 0.417-0.162 0.625-0.252 0.523-0.221 1.043-0.459 1.556-0.715l1.157-0.58-0.033-0.033c2.196-1.232 4.248-2.756 6.079-4.586 5.237-5.238 8.123-12.204 8.123-19.608C77.731 25.707 65.291 13.268 50.001 13.268zM60.233 64.771c-0.505 0.217-1.02 0.402-1.535 0.586-0.291 0.104-0.578 0.221-0.875 0.313-0.462 0.146-0.933 0.262-1.401 0.381-0.359 0.092-0.715 0.193-1.078 0.27-0.438 0.092-0.884 0.154-1.326 0.223-0.398 0.063-0.794 0.135-1.195 0.178-0.438 0.045-0.883 0.063-1.326 0.088-0.463 0.025-0.923 0.066-1.392 0.066h-0.208c-0.483 0-0.962-0.041-1.44-0.068-0.416-0.025-0.834-0.037-1.246-0.084-0.406-0.043-0.804-0.113-1.206-0.178-0.431-0.066-0.865-0.123-1.291-0.211-0.363-0.074-0.719-0.178-1.077-0.268-0.452-0.115-0.906-0.219-1.35-0.355-0.324-0.102-0.639-0.229-0.959-0.344-0.462-0.166-0.929-0.32-1.381-0.512-0.301-0.127-0.59-0.279-0.885-0.418-0.454-0.213-0.912-0.414-1.354-0.654-0.307-0.166-0.599-0.359-0.9-0.539-0.411-0.244-0.828-0.479-1.227-0.746-0.366-0.246-0.713-0.527-1.068-0.793-0.313-0.234-0.636-0.451-0.938-0.701-0.648-0.535-1.277-1.102-1.879-1.703-0.599-0.598-1.161-1.223-1.693-1.867-0.235-0.285-0.439-0.588-0.661-0.883-0.085-0.113-0.17-0.227-0.253-0.342l2.961-0.252-0.254 2.967 2.443-1.705 1.263 2.695 1.264-2.695 2.443 1.705-0.255-2.967 2.968 0.254-1.703-2.443 2.695-1.262-2.695-1.266 1.703-2.443-2.968 0.253 0.255-2.969-2.442 1.705-1.265-2.698-1.265 2.698-2.441-1.705 0.254 2.969-2.968-0.253 1.703 2.443-2.695 1.266 2.695 1.262-1.7 2.439c-0.188-0.258-0.391-0.504-0.567-0.766-0.252-0.375-0.472-0.766-0.703-1.15-0.192-0.32-0.398-0.635-0.576-0.961-0.223-0.41-0.412-0.832-0.611-1.252-0.154-0.326-0.321-0.645-0.461-0.977-0.175-0.41-0.319-0.833-0.473-1.253-0.129-0.359-0.27-0.714-0.384-1.078-0.126-0.399-0.223-0.806-0.328-1.209-0.104-0.403-0.216-0.803-0.303-1.211-0.08-0.383-0.135-0.772-0.197-1.159-0.071-0.44-0.146-0.878-0.195-1.323-0.042-0.384-0.062-0.773-0.086-1.16-0.033-0.502-0.069-1.005-0.073-1.511l-0.002-0.384c0.004-0.501 0.045-0.993 0.077-1.488 0.027-0.44 0.051-0.883 0.102-1.319 0.047-0.398 0.117-0.788 0.181-1.179 0.077-0.476 0.153-0.952 0.258-1.421 0.075-0.343 0.172-0.678 0.261-1.016 0.133-0.499 0.266-0.997 0.428-1.486 0.106-0.321 0.23-0.634 0.349-0.948 0.179-0.479 0.361-0.957 0.568-1.423 0.15-0.338 0.315-0.666 0.479-0.996 0.206-0.416 0.415-0.83 0.643-1.235 0.212-0.374 0.439-0.737 0.669-1.1 0.211-0.333 0.422-0.666 0.648-0.99 0.282-0.404 0.58-0.796 0.884-1.183 0.205-0.26 0.41-0.519 0.624-0.771 0.349-0.41 0.711-0.806 1.085-1.193 0.203-0.212 0.409-0.423 0.622-0.628 0.195-0.19 0.403-0.367 0.605-0.551l30.545 19.043H36.119l24.267 23.771C60.335 64.721 60.286 64.75 60.233 64.771zM32.849 50.973l1.226 0.105-0.104-1.226 1.01 0.705 0.521-1.116 0.521 1.116 1.01-0.705-0.104 1.226 1.225-0.105L37.45 51.98l1.115 0.521-1.115 0.525 0.703 1.008-1.225-0.105 0.104 1.227-1.008-0.703-0.523 1.113-0.522-1.113-1.009 0.703 0.104-1.227-1.226 0.105 0.704-1.008-1.116-0.525 1.116-0.521L32.849 50.973zM68.303 59.301c-1.839 1.838-3.906 3.365-6.137 4.557L40.643 42.774h28.961L34.083 20.629c4.396-3.443 9.914-5.516 15.918-5.516 14.272 0 25.883 11.612 25.883 25.884C75.884 47.91 73.192 54.41 68.303 59.301z" fill="#50a060" data-fill-palette-color="accent"></path><path fill-rule="evenodd" clip-rule="evenodd" d="M41.223 31.93c0-0.328-0.023-0.651-0.065-0.968-0.249 1.833-1.2 3.431-2.562 4.55l-1.063-0.272 1.368-1.425-1.962 0.231 0.761-1.823-1.745 0.926 0.051-1.976-1.292 1.495-0.667-1.861-0.666 1.861-1.293-1.495 0.051 1.976-1.745-0.926 0.761 1.823-1.961-0.231 1.367 1.425-1.038 0.267c-1.357-1.119-2.305-2.716-2.553-4.545-0.043 0.317-0.066 0.64-0.066 0.968 0 3.955 3.205 7.16 7.16 7.16S41.223 35.884 41.223 31.93z" fill="#50a060" data-fill-palette-color="accent"></path></g></svg></g></svg></g><g id="text-0"><path d="M32.307 105.967v0c-0.534 1.54-1.117 2.767-1.747 3.682-0.63 0.915-1.26 1.608-1.89 2.077-0.633 0.462-1.212 0.786-1.735 0.974v0c-0.194 0.058-0.379 0.101-0.557 0.13-0.173 0.037-0.359 0.042-0.558 0.015v0c-0.259-0.034-0.592-0.098-0.998-0.19-0.415-0.088-0.876-0.241-1.385-0.46v0c-0.213-0.088-0.348-0.18-0.405-0.276v0c-0.069-0.121-0.095-0.287-0.078-0.496v0c0.042-0.382 0.127-0.867 0.255-1.456 0.126-0.582 0.231-0.998 0.318-1.246v0c0.088-0.255 0.209-0.442 0.362-0.563 0.147-0.123 0.373-0.253 0.678-0.391v0c0.339-0.154 0.81-0.46 1.414-0.917 0.598-0.46 1.111-1.308 1.539-2.544v0c0.411-1.186 0.474-2.169 0.189-2.949-0.286-0.781-0.869-1.324-1.75-1.63v0c-0.472-0.164-0.968-0.176-1.49-0.037-0.515 0.141-1.114 0.514-1.796 1.119-0.677 0.607-1.487 1.529-2.431 2.766v0c-1.575 2.034-3.117 3.36-4.625 3.977-1.502 0.62-3.277 0.574-5.325-0.137v0c-1.695-0.588-2.97-1.493-3.826-2.715-0.856-1.222-1.32-2.659-1.394-4.312-0.08-1.655 0.211-3.436 0.873-5.342v0c0.508-1.465 1.103-2.618 1.785-3.46 0.677-0.85 1.326-1.466 1.946-1.849 0.611-0.379 1.079-0.603 1.401-0.672v0c0.188-0.039 0.327-0.06 0.419-0.063 0.091-0.003 0.205 0.012 0.339 0.044v0c0.392 0.094 0.815 0.227 1.27 0.399 0.455 0.172 0.961 0.396 1.519 0.673v0c0.182 0.098 0.293 0.209 0.333 0.335v0c0.032 0.108 0.017 0.253-0.046 0.433v0c-0.388 1.18-0.766 2.068-1.133 2.663v0c-0.15 0.233-0.272 0.382-0.364 0.448-0.084 0.061-0.218 0.137-0.402 0.226v0c-0.296 0.113-0.672 0.323-1.127 0.631-0.451 0.317-0.835 0.934-1.154 1.853v0c-0.442 1.273-0.469 2.275-0.083 3.007 0.392 0.734 0.945 1.225 1.659 1.473v0c0.85 0.295 1.651 0.131 2.403-0.491 0.752-0.623 1.726-1.676 2.922-3.16v0c0.99-1.249 1.953-2.282 2.89-3.097 0.931-0.818 1.946-1.338 3.046-1.562 1.094-0.226 2.386-0.08 3.875 0.437v0c1.856 0.644 3.247 1.607 4.173 2.888 0.932 1.283 1.441 2.764 1.526 4.442 0.092 1.68-0.187 3.455-0.835 5.323z" fill="#50a060" data-fill-palette-color="primary"></path><path d="M41.557 86.202v0c-0.981 1.611-2.212 2.615-3.693 3.013-1.481 0.398-3.016 0.114-4.604-0.853v0c-0.825-0.502-1.499-1.12-2.021-1.854-0.523-0.734-0.826-1.638-0.91-2.713-0.086-1.084 0.117-2.402 0.609-3.956 0.498-1.551 1.36-3.395 2.586-5.535v0c-0.999-0.608-1.869-0.796-2.612-0.563-0.739 0.227-1.412 0.84-2.02 1.84v0c-0.547 0.898-0.84 1.727-0.88 2.487-0.042 0.751-0.052 1.234-0.028 1.449v0c0.037 0.23-0.025 0.446-0.187 0.647v0c-0.226 0.27-0.496 0.537-0.81 0.8-0.312 0.272-0.657 0.554-1.035 0.847v0c-0.057 0.042-0.128 0.084-0.214 0.123-0.088 0.031-0.186 0.021-0.294-0.029v0c-0.056-0.034-0.12-0.081-0.192-0.14-0.077-0.062-0.213-0.18-0.408-0.352v0c-0.192-0.178-0.423-0.411-0.694-0.7-0.269-0.279-0.466-0.511-0.592-0.695v0c-0.129-0.217-0.205-0.49-0.228-0.82v0c-0.039-0.277 0.058-0.992 0.29-2.143 0.237-1.148 0.9-2.614 1.986-4.399v0c2.997-4.922 6.89-5.925 11.677-3.009v0l9.302 5.665c0.208 0.126 0.351 0.295 0.431 0.505 0.078 0.201 0.033 0.439-0.134 0.714v0l-1.503 2.466c-0.106 0.174-0.227 0.316-0.362 0.426-0.133 0.104-0.307 0.175-0.522 0.213v0l-1.934 0.218-0.067 0.11c0.428 0.953 0.546 1.952 0.356 2.998-0.188 1.055-0.619 2.135-1.293 3.24zM38.846 82.07v0c0.612-1.005 0.817-1.922 0.615-2.753-0.202-0.831-0.532-1.482-0.991-1.954v0l-1.827-1.113c-0.926 1.521-1.504 2.735-1.733 3.642-0.226 0.901-0.227 1.593-0.005 2.074 0.228 0.485 0.561 0.861 0.998 1.127v0c0.634 0.386 1.194 0.458 1.681 0.216 0.486-0.242 0.907-0.656 1.262-1.239z" fill="#50a060" data-fill-palette-color="primary"></path><path d="M56.538 47.96v0l8.112 7.789c0.275 0.264 0.41 0.508 0.405 0.731-0.005 0.214-0.142 0.461-0.41 0.74v0l-2.745 2.858c-0.269 0.28-0.51 0.426-0.723 0.44-0.218 0.009-0.465-0.118-0.739-0.382v0l-7.387-7.093c-1.01-0.969-1.951-1.464-2.826-1.483-0.869-0.015-1.654 0.343-2.355 1.072v0c-0.705 0.735-1.088 1.446-1.149 2.136-0.065 0.694 0.042 1.379 0.321 2.057v0l8.624 8.28c0.275 0.264 0.41 0.508 0.405 0.731-0.005 0.214-0.142 0.461-0.41 0.74v0l-2.744 2.858c-0.269 0.28-0.51 0.426-0.723 0.44-0.218 0.009-0.465-0.118-0.74-0.382v0l-11.638-11.175c-0.223-0.214-0.35-0.423-0.383-0.627v0c-0.074-0.445-0.112-0.932-0.113-1.462-0.011-0.53 0.023-1.139 0.102-1.828v0c0.024-0.214 0.088-0.376 0.193-0.485v0c0.1-0.104 0.259-0.175 0.476-0.212v0c0.677-0.097 1.289-0.152 1.837-0.162 0.539-0.011 1.06 0.02 1.564 0.093v0l0.068-0.071c-0.054-0.352-0.068-0.817-0.042-1.393 0.035-0.577 0.219-1.252 0.551-2.026 0.333-0.774 0.925-1.603 1.776-2.49v0c0.837-0.872 1.809-1.533 2.916-1.983 1.106-0.45 2.318-0.526 3.634-0.227 1.321 0.294 2.702 1.133 4.143 2.516z" fill="#50a060" data-fill-palette-color="primary"></path><path d="M78.207 48.217v0c-3.554 2.392-6.575 1.741-9.062-1.955v0l-5.037-7.481-1.798 1.211c-0.322 0.216-0.588 0.297-0.8 0.241-0.213-0.046-0.428-0.23-0.645-0.552v0l-1.321-1.962c-0.216-0.322-0.306-0.59-0.269-0.806 0.032-0.212 0.209-0.426 0.53-0.642v0l1.799-1.211-1.734-2.575c-0.172-0.256-0.25-0.489-0.233-0.699v0c0.054-0.884 0.283-1.957 0.686-3.218v0c0.074-0.208 0.171-0.352 0.29-0.433v0c0.125-0.084 0.29-0.116 0.495-0.095v0c0.693 0.041 1.299 0.112 1.819 0.213 0.522 0.092 0.995 0.213 1.42 0.363v0c0.195 0.067 0.379 0.228 0.552 0.484v0l1.733 2.575 2.829-1.904c0.316-0.213 0.581-0.296 0.795-0.25 0.208 0.05 0.42 0.236 0.637 0.558v0l1.321 1.962c0.216 0.322 0.309 0.588 0.277 0.8-0.034 0.221-0.209 0.437-0.525 0.65v0l-2.829 1.905 4.447 6.606c1.145 1.701 2.336 2.135 3.573 1.302v0c0.191-0.128 0.352-0.265 0.485-0.41 0.142-0.143 0.255-0.275 0.34-0.395v0c0.165-0.238 0.301-0.377 0.408-0.417 0.102-0.037 0.263 0.025 0.482 0.186v0l2.592 1.856c0.278 0.201 0.344 0.434 0.197 0.699v0c-0.112 0.186-0.404 0.589-0.875 1.206-0.471 0.618-1.331 1.347-2.579 2.188z" fill="#50a060" data-fill-palette-color="primary"></path><path d="M96.06 39.278v0c-2.975 1.266-5.667 1.476-8.076 0.63-2.407-0.84-4.276-2.826-5.609-5.957v0c-1.366-3.211-1.487-5.994-0.361-8.352 1.128-2.351 3.197-4.167 6.208-5.448v0c2.902-1.235 5.559-1.444 7.97-0.627 2.414 0.823 4.269 2.757 5.565 5.805v0c1.351 3.174 1.507 5.968 0.47 8.38-1.04 2.406-3.096 4.263-6.167 5.569zM94.416 34.911v0c1.3-0.553 2.108-1.372 2.426-2.456 0.314-1.091 0.055-2.615-0.779-4.575v0c-0.795-1.868-1.687-3.042-2.677-3.521-0.989-0.479-2.14-0.439-3.452 0.12v0c-1.264 0.538-2.083 1.372-2.459 2.503-0.376 1.131-0.172 2.616 0.61 4.453v0c0.821 1.929 1.74 3.134 2.759 3.614 1.021 0.487 2.212 0.441 3.572-0.138z" fill="#50a060" data-fill-palette-color="primary"></path><path d="M117.459 32.686v0c-1.348 0.263-2.486 0.368-3.413 0.315-0.934-0.052-1.7-0.187-2.299-0.405-0.598-0.218-1.075-0.429-1.429-0.634v0c-0.267-0.169-0.34-0.402-0.217-0.701v0l1.367-3.23c0.198-0.46 0.509-0.548 0.933-0.263v0c0.437 0.283 0.998 0.532 1.682 0.746 0.69 0.207 1.499 0.219 2.428 0.038v0c0.832-0.163 1.488-0.438 1.968-0.826 0.48-0.388 0.667-0.853 0.561-1.395v0c-0.073-0.374-0.252-0.657-0.538-0.849-0.285-0.192-0.756-0.355-1.411-0.488-0.649-0.134-1.553-0.292-2.713-0.474v0c-1.713-0.268-3.059-0.732-4.038-1.39-0.979-0.659-1.622-1.775-1.93-3.349v0c-0.282-1.445-0.112-2.7 0.51-3.765 0.623-1.059 1.519-1.924 2.687-2.594 1.169-0.664 2.434-1.128 3.795-1.394v0c1.728-0.338 2.972-0.413 3.732-0.227 0.765 0.179 1.265 0.339 1.5 0.48v0c0.219 0.125 0.387 0.286 0.506 0.484v0c0.257 0.459 0.509 1.082 0.757 1.871v0c0.144 0.461 0.085 0.794-0.177 0.998v0c-0.137 0.121-0.357 0.261-0.661 0.421-0.309 0.167-0.62 0.322-0.933 0.463-0.315 0.135-0.553 0.219-0.715 0.25v0c-0.052 0.01-0.11 0.005-0.174-0.016-0.063-0.014-0.175-0.073-0.335-0.176v0c-0.193-0.13-0.51-0.262-0.951-0.396-0.436-0.142-1.003-0.146-1.7-0.01v0c-0.677 0.132-1.226 0.353-1.647 0.664-0.414 0.315-0.567 0.75-0.459 1.304v0c0.117 0.6 0.499 0.994 1.145 1.183 0.646 0.188 1.69 0.39 3.131 0.603v0c1.129 0.161 2.13 0.381 3.001 0.659 0.872 0.285 1.59 0.734 2.151 1.348 0.568 0.612 0.968 1.511 1.2 2.698v0c0.3 1.535 0.122 2.855-0.532 3.96-0.656 1.099-1.594 1.985-2.815 2.659-1.22 0.68-2.542 1.159-3.967 1.438z" fill="#50a060" data-fill-palette-color="primary"></path><path d="M138.197 17.278l0 11.956c0 0.381-0.082 0.647-0.247 0.799-0.158 0.145-0.43 0.217-0.818 0.216v0l-3.962 0c-0.388 0-0.66-0.072-0.818-0.217-0.158-0.151-0.237-0.417-0.237-0.798v0l0.002-26.041c0-0.309 0.062-0.549 0.187-0.719v0c0.539-0.703 1.327-1.465 2.366-2.287v0c0.184-0.125 0.345-0.187 0.483-0.187v0c0.164 0 0.325 0.062 0.483 0.187v0c0.552 0.427 1.015 0.825 1.39 1.193 0.381 0.375 0.706 0.739 0.975 1.094v0c0.131 0.171 0.197 0.411 0.198 0.72v0l-0.001 9.334 0.069 0c0.283-0.375 0.651-0.752 1.104-1.134 0.447-0.375 1.045-0.69 1.794-0.946 0.756-0.256 1.715-0.384 2.878-0.384v0c1.183 0 2.32 0.243 3.41 0.73 1.091 0.486 1.981 1.308 2.671 2.464 0.696 1.157 1.045 2.734 1.044 4.731v0l0 11.246c0 0.381-0.082 0.647-0.247 0.799-0.158 0.145-0.43 0.217-0.818 0.216v0l-3.962 0c-0.388 0-0.66-0.072-0.818-0.217-0.158-0.151-0.237-0.417-0.237-0.798v0l0.001-10.182c0-1.426-0.295-2.464-0.887-3.115-0.591-0.644-1.393-0.966-2.405-0.966v0c-1.005 0-1.784 0.217-2.336 0.651-0.545 0.434-0.966 0.986-1.262 1.655z" fill="#50a060" data-fill-palette-color="primary"></path><path d="M184.931 18.662l-6.967 17.595c-0.14 0.354-0.309 0.574-0.505 0.659-0.188 0.081-0.456 0.053-0.804-0.085v0l-3.592-1.422c-0.336-0.133-0.548-0.295-0.635-0.485-0.091-0.199-0.066-0.475 0.074-0.829v0l8.977-22.672c0.281-0.709 0.622-1.171 1.026-1.386 0.406-0.221 0.954-0.195 1.644 0.079v0l1.667 0.66c0.611 0.242 1.154 0.549 1.629 0.92 0.478 0.38 0.916 0.971 1.313 1.771 0.388 0.804 0.758 1.958 1.11 3.461 0.354 1.497 0.707 3.489 1.059 5.974v0c0.347 2.371 0.627 4.27 0.84 5.697 0.221 1.423 0.394 2.513 0.518 3.269 0.133 0.752 0.239 1.296 0.319 1.631 0.079 0.335 0.147 0.61 0.204 0.823v0l5.98-15.102c0.135-0.342 0.291-0.584 0.468-0.727v0c0.823-0.579 1.862-1.125 3.118-1.638v0c0.233-0.07 0.407-0.083 0.524-0.036v0c0.134 0.053 0.25 0.18 0.347 0.381v0c0.31 0.646 0.553 1.244 0.731 1.795 0.18 0.545 0.32 1.056 0.421 1.534v0c0.026 0.237-0.026 0.52-0.156 0.85v0l-8.441 21.315c-0.213 0.538-0.465 0.88-0.756 1.026-0.291 0.146-0.705 0.113-1.243-0.1v0l-1.713-0.678c-0.513-0.203-1.005-0.497-1.475-0.881-0.467-0.39-0.919-1.025-1.356-1.904-0.44-0.888-0.867-2.166-1.28-3.836-0.416-1.663-0.834-3.882-1.255-6.656v0c-0.35-2.365-0.631-4.243-0.843-5.634-0.21-1.398-0.375-2.453-0.496-3.165-0.118-0.718-0.208-1.224-0.269-1.516-0.061-0.293-0.122-0.522-0.183-0.688z" fill="#50a060" data-fill-palette-color="primary"></path><path d="M208.737 54.684v0c-1.741-1.292-3.046-2.698-3.915-4.218-0.873-1.515-1.225-3.13-1.056-4.846 0.165-1.711 0.942-3.503 2.332-5.376v0c2.091-2.818 4.394-4.411 6.908-4.779 2.51-0.372 4.96 0.329 7.35 2.103v0c1.557 1.155 2.668 2.409 3.333 3.762 0.661 1.358 0.91 2.733 0.745 4.124-0.164 1.4-0.711 2.729-1.643 3.985v0c-0.908 1.224-1.857 1.846-2.845 1.866-0.993 0.016-2.092-0.423-3.295-1.316v0l-6.633-4.922c-0.703 1.123-0.911 2.22-0.626 3.292 0.282 1.076 1.019 2.057 2.211 2.941v0c0.95 0.705 1.815 1.126 2.597 1.264 0.781 0.138 1.346 0.209 1.695 0.214v0c0.306 0.006 0.577 0.105 0.811 0.296v0c0.195 0.145 0.45 0.391 0.765 0.739 0.305 0.349 0.561 0.76 0.767 1.232v0c0.161 0.324 0.153 0.604-0.023 0.842v0c-0.102 0.137-0.271 0.31-0.508 0.519v0c-0.132 0.123-0.337 0.294-0.614 0.514-0.274 0.214-0.554 0.399-0.841 0.554v0c-0.149 0.069-0.327 0.105-0.534 0.107v0c-0.315-0.005-0.791-0.059-1.426-0.162-0.631-0.108-1.411-0.364-2.34-0.767-0.93-0.412-2.002-1.068-3.215-1.968zM212.341 41.87v0l5.042 3.741c0.528 0.392 0.97 0.347 1.326-0.133v0c0.544-0.734 0.773-1.521 0.686-2.363-0.091-0.837-0.596-1.596-1.514-2.277v0c-0.997-0.74-1.968-0.965-2.911-0.675-0.943 0.29-1.82 0.859-2.629 1.707z" fill="#50a060" data-fill-palette-color="primary"></path><path d="M243.269 59.87v0c1.226 1.416 1.918 2.859 2.077 4.328 0.16 1.47-0.121 2.907-0.842 4.313-0.722 1.415-1.8 2.744-3.236 3.988v0c-1.55 1.342-3.174 2.287-4.872 2.835-1.702 0.543-3.361 0.615-4.977 0.214-1.62-0.396-3.089-1.355-4.404-2.875v0c-0.679-0.785-1.151-1.511-1.416-2.178-0.26-0.662-0.399-1.254-0.417-1.777-0.014-0.518 0.004-0.955 0.053-1.31v0l-0.045-0.052-6.201 5.367c-0.234 0.202-0.455 0.307-0.665 0.315v0c-0.884 0.053-1.977-0.045-3.278-0.292v0c-0.215-0.048-0.371-0.127-0.465-0.236v0c-0.099-0.114-0.155-0.279-0.167-0.495v0c-0.043-0.693-0.046-1.303-0.007-1.831 0.029-0.529 0.092-1.014 0.188-1.454v0c0.043-0.202 0.181-0.404 0.414-0.606v0l17.947-15.532c0.234-0.202 0.453-0.31 0.659-0.322v0c0.45-0.033 0.938-0.026 1.466 0.021 0.528 0.038 1.132 0.128 1.811 0.271v0c0.211 0.043 0.375 0.132 0.491 0.266v0c0.107 0.124 0.172 0.299 0.193 0.524v0c0.035 0.683 0.03 1.295-0.014 1.837-0.034 0.543-0.111 1.061-0.231 1.555v0l0.064 0.075c0.346-0.012 0.811 0.024 1.397 0.107 0.581 0.088 1.254 0.349 2.019 0.782 0.765 0.433 1.585 1.153 2.458 2.162zM229.804 68.395v0c0.907 1.048 1.978 1.542 3.212 1.482 1.229-0.056 2.537-0.684 3.923-1.883v0c2.618-2.266 2.997-4.475 1.135-6.626v0c-0.791-0.914-1.56-1.426-2.307-1.536-0.751-0.115-1.415-0.083-1.992 0.094v0l-3.16 2.734c-0.939 0.813-1.516 1.733-1.729 2.762-0.21 1.033 0.096 2.024 0.918 2.973z" fill="#50a060" data-fill-palette-color="primary"></path><path d="M238.395 89.551v0c-0.887-1.664-1.124-3.235-0.713-4.713 0.411-1.478 1.438-2.653 3.079-3.528v0c0.852-0.454 1.727-0.719 2.625-0.796 0.898-0.076 1.83 0.123 2.798 0.598 0.977 0.477 2.008 1.324 3.095 2.539 1.081 1.218 2.23 2.899 3.446 5.043v0c1.032-0.55 1.637-1.204 1.815-1.96 0.18-0.751-0.004-1.643-0.555-2.676v0c-0.494-0.928-1.059-1.603-1.692-2.024-0.625-0.419-1.036-0.673-1.233-0.762v0c-0.217-0.086-0.371-0.249-0.462-0.49v0c-0.117-0.332-0.209-0.7-0.276-1.104-0.075-0.407-0.142-0.847-0.201-1.322v0c-0.008-0.07-0.007-0.153 0.002-0.247 0.018-0.092 0.076-0.171 0.175-0.239v0c0.058-0.031 0.131-0.062 0.218-0.093 0.093-0.035 0.264-0.092 0.511-0.172v0c0.251-0.074 0.569-0.154 0.955-0.241 0.377-0.089 0.677-0.141 0.9-0.156v0c0.253-0.001 0.527 0.073 0.821 0.221v0c0.259 0.108 0.824 0.555 1.697 1.341 0.867 0.789 1.792 2.105 2.775 3.949v0c2.71 5.086 1.591 8.947-3.355 11.583v0l-9.612 5.121c-0.215 0.114-0.433 0.152-0.655 0.114-0.213-0.036-0.395-0.196-0.546-0.48v0l-1.357-2.548c-0.096-0.18-0.156-0.356-0.182-0.529-0.022-0.167 0.006-0.353 0.083-0.558v0l0.796-1.776-0.06-0.113c-1.038-0.117-1.958-0.524-2.761-1.22-0.812-0.699-1.522-1.62-2.131-2.762zM243.332 89.321v0c0.553 1.038 1.239 1.682 2.056 1.931 0.818 0.249 1.547 0.297 2.187 0.142v0l1.887-1.006c-0.837-1.572-1.588-2.687-2.251-3.345-0.661-0.653-1.255-1.007-1.783-1.061-0.533-0.051-1.026 0.044-1.478 0.285v0c-0.655 0.349-1.002 0.795-1.042 1.337-0.039 0.542 0.102 1.114 0.424 1.717z" fill="#50a060" data-fill-palette-color="primary"></path><path d="M250.449 113.032l-3.016-3.236c-0.197-0.218-0.313-0.381-0.348-0.487v0c-0.037-0.112-0.032-0.242 0.016-0.389v0c0.1-0.345 0.471-0.824 1.111-1.439 0.643-0.608 1.756-1.175 3.341-1.7v0l21.151-7.019c0.293-0.097 0.54-0.114 0.742-0.049v0c0.837 0.29 1.809 0.798 2.915 1.525v0c0.176 0.135 0.286 0.268 0.33 0.4v0c0.052 0.156 0.043 0.328-0.026 0.517v0c-0.232 0.658-0.463 1.223-0.694 1.695-0.235 0.48-0.479 0.903-0.731 1.271v0c-0.121 0.179-0.328 0.316-0.621 0.413v0l-20.038 6.649c-0.805 0.267-1.466 0.559-1.983 0.876-0.522 0.326-0.924 0.636-1.208 0.931v0c-0.331 0.338-0.645 0.352-0.941 0.042z" fill="#50a060" data-fill-palette-color="primary"></path><path d="M3.276 144.769c0-6.382 5.173-11.555 11.555-11.555 6.382 0 11.555 5.173 11.555 11.555 0 6.382-5.173 11.555-11.555 11.555-6.382 0-11.555-5.173-11.555-11.555z" fill="#50a060" data-fill-palette-color="primary"></path><path d="M251.661 144.769c0-6.382 5.173-11.555 11.555-11.555 6.382 0 11.555 5.173 11.556 11.555 0 6.382-5.173 11.555-11.556 11.555-6.382 0-11.555-5.173-11.555-11.555z" fill="#50a060" data-fill-palette-color="primary"></path></g><g id="text-1"><path d="M12.067 191.317v0c-0.574-1.63-0.9-3.03-0.978-4.202-0.08-1.177-0.015-2.168 0.196-2.974 0.213-0.8 0.478-1.45 0.797-1.952v0c0.126-0.177 0.251-0.336 0.375-0.477 0.116-0.145 0.264-0.27 0.443-0.375v0c0.243-0.141 0.562-0.313 0.957-0.515 0.398-0.196 0.879-0.372 1.444-0.53v0c0.24-0.071 0.417-0.081 0.533-0.031v0c0.136 0.05 0.265 0.168 0.386 0.356v0c0.22 0.348 0.472 0.806 0.756 1.374 0.278 0.571 0.461 0.984 0.551 1.238v0c0.096 0.273 0.124 0.51 0.083 0.712-0.046 0.204-0.15 0.464-0.311 0.778v0c-0.183 0.35-0.371 0.914-0.564 1.693-0.195 0.772-0.062 1.812 0.399 3.12v0c0.443 1.258 1.042 2.117 1.795 2.576 0.745 0.455 1.589 0.517 2.532 0.185v0c0.496-0.175 0.914-0.489 1.256-0.944 0.333-0.459 0.583-1.163 0.75-2.114 0.158-0.954 0.223-2.256 0.192-3.903v0c-0.04-2.724 0.361-4.84 1.203-6.348 0.835-1.506 2.337-2.641 4.506-3.406v0c1.797-0.633 3.454-0.725 4.97-0.277 1.51 0.45 2.846 1.335 4.007 2.654 1.155 1.321 2.087 2.989 2.797 5.003v0c0.548 1.556 0.818 2.906 0.81 4.051-0.006 1.151-0.138 2.09-0.398 2.816-0.254 0.723-0.494 1.219-0.72 1.486v0c-0.124 0.162-0.224 0.274-0.3 0.336-0.07 0.059-0.174 0.12-0.312 0.183v0c-0.384 0.177-0.822 0.345-1.316 0.505-0.494 0.16-1.061 0.311-1.701 0.453v0c-0.218 0.035-0.385 0.014-0.503-0.063v0c-0.093-0.065-0.174-0.197-0.243-0.395v0c-0.461-1.231-0.735-2.214-0.82-2.951v0c-0.034-0.295-0.032-0.497 0.005-0.608 0.031-0.109 0.093-0.259 0.186-0.452v0c0.17-0.29 0.34-0.715 0.511-1.277 0.173-0.556 0.088-1.323-0.257-2.303v0c-0.474-1.345-1.117-2.191-1.928-2.539-0.806-0.35-1.587-0.392-2.344-0.126v0c-0.899 0.317-1.456 0.98-1.671 1.989-0.214 1.016-0.323 2.535-0.329 4.557v0c0.001 1.685-0.115 3.175-0.348 4.47-0.24 1.297-0.74 2.399-1.5 3.308-0.76 0.909-1.93 1.641-3.51 2.197v0c-1.965 0.692-3.754 0.814-5.368 0.365-1.614-0.449-3.011-1.34-4.191-2.672-1.188-1.337-2.131-2.994-2.828-4.971z" fill="#c9efc7" data-fill-palette-color="secondary"></path><path d="M23.27 215.059v0c-1.046-1.702-1.399-3.348-1.057-4.938 0.341-1.59 1.351-2.902 3.03-3.935v0c0.868-0.533 1.775-0.871 2.721-1.013 0.937-0.144 1.938 0.004 3.004 0.444 1.06 0.444 2.204 1.276 3.431 2.495 1.225 1.214 2.553 2.916 3.984 5.106v0c1.052-0.647 1.649-1.376 1.79-2.188 0.138-0.817-0.117-1.752-0.764-2.805v0c-0.585-0.952-1.224-1.627-1.917-2.026-0.696-0.405-1.15-0.647-1.36-0.726v0c-0.24-0.076-0.413-0.24-0.521-0.489v0c-0.142-0.344-0.266-0.727-0.37-1.149-0.099-0.425-0.199-0.888-0.3-1.39v0c-0.012-0.07-0.015-0.156-0.009-0.26 0.015-0.102 0.069-0.189 0.163-0.262v0c0.062-0.038 0.138-0.077 0.228-0.118 0.096-0.044 0.273-0.114 0.531-0.21v0c0.266-0.094 0.597-0.201 0.993-0.322 0.4-0.115 0.716-0.19 0.95-0.225v0c0.261-0.014 0.553 0.046 0.874 0.18v0c0.283 0.096 0.91 0.532 1.88 1.308 0.971 0.776 2.038 2.11 3.202 4.003v0c3.197 5.2 2.266 9.356-2.795 12.467v0l-9.841 6.05c-0.218 0.134-0.442 0.191-0.671 0.169-0.232-0.027-0.438-0.186-0.617-0.476v0l-1.6-2.603c-0.114-0.185-0.19-0.365-0.229-0.542-0.034-0.18-0.014-0.381 0.058-0.603v0l0.724-1.926-0.077-0.126c-1.105-0.053-2.106-0.421-3.004-1.103-0.901-0.688-1.711-1.617-2.431-2.787zM28.478 214.495v0c0.654 1.064 1.422 1.698 2.304 1.904 0.88 0.215 1.658 0.219 2.333 0.012v0l1.923-1.182c-0.991-1.612-1.858-2.745-2.6-3.4-0.747-0.651-1.401-0.986-1.96-1.005-0.563-0.024-1.076 0.106-1.541 0.392v0c-0.672 0.413-1.012 0.907-1.02 1.483-0.005 0.582 0.182 1.18 0.561 1.796z" fill="#c9efc7" data-fill-palette-color="secondary"></path><path d="M60.723 239.285v0l-8.56 8.29c-0.293 0.283-0.555 0.419-0.787 0.405-0.232-0.013-0.49-0.166-0.773-0.458v0l-2.928-3.023c-0.283-0.293-0.426-0.553-0.427-0.781-0.006-0.232 0.138-0.49 0.431-0.774v0l7.795-7.549c1.067-1.033 1.624-2.012 1.671-2.936 0.057-0.924-0.288-1.77-1.032-2.54v0c-0.75-0.774-1.493-1.207-2.231-1.297-0.733-0.095-1.461-0.007-2.186 0.265v0l-9.098 8.811c-0.293 0.283-0.555 0.419-0.787 0.405-0.232-0.013-0.49-0.166-0.774-0.458v0l-2.928-3.023c-0.283-0.293-0.428-0.555-0.433-0.788-0.006-0.232 0.138-0.49 0.431-0.774v0l12.277-11.89c0.236-0.229 0.466-0.355 0.689-0.379v0c0.475-0.057 0.993-0.079 1.555-0.066 0.562 0.014 1.207 0.075 1.935 0.185v0c0.223 0.031 0.391 0.106 0.505 0.224v0c0.101 0.104 0.168 0.272 0.201 0.505v0c0.077 0.722 0.11 1.37 0.102 1.946-0.009 0.576-0.06 1.128-0.152 1.657v0l0.068 0.071c0.377-0.036 0.869-0.028 1.478 0.023 0.608 0.052 1.318 0.27 2.129 0.655 0.802 0.385 1.658 1.047 2.568 1.986v0c0.887 0.916 1.548 1.967 1.985 3.154 0.432 1.192 0.467 2.48 0.105 3.863-0.361 1.384-1.304 2.814-2.829 4.291z" fill="#c9efc7" data-fill-palette-color="secondary"></path><path d="M66.676 259.731v0c-3.782-2.525-4.361-5.752-1.738-9.681v0l5.308-7.952-1.91-1.275c-0.344-0.23-0.532-0.458-0.563-0.684-0.036-0.23 0.059-0.514 0.285-0.853v0l1.396-2.09c0.226-0.339 0.452-0.536 0.678-0.59 0.221-0.058 0.503 0.028 0.847 0.258v0l1.91 1.275 1.823-2.73c0.182-0.273 0.38-0.445 0.593-0.516v0c0.888-0.3 2.033-0.507 3.437-0.622v0c0.235-0.009 0.413 0.027 0.533 0.107v0c0.137 0.091 0.235 0.24 0.295 0.446v0c0.238 0.696 0.415 1.32 0.529 1.87 0.114 0.55 0.186 1.064 0.215 1.542v0c0.011 0.221-0.075 0.467-0.258 0.741v0l-1.822 2.73 3.009 2.008c0.339 0.226 0.526 0.454 0.562 0.684 0.036 0.23-0.059 0.514-0.285 0.853v0l-1.395 2.09c-0.226 0.339-0.452 0.536-0.678 0.59-0.226 0.055-0.508-0.031-0.848-0.257v0l-3.008-2.009-4.69 7.025c-1.208 1.809-1.153 3.153 0.164 4.033v0c0.202 0.135 0.401 0.24 0.596 0.314 0.199 0.069 0.375 0.124 0.53 0.165v0c0.297 0.064 0.486 0.142 0.566 0.235 0.078 0.084 0.084 0.265 0.016 0.544v0l-0.773 3.288c-0.086 0.353-0.291 0.513-0.616 0.478v0c-0.221-0.037-0.729-0.163-1.525-0.378-0.8-0.21-1.861-0.757-3.183-1.639z" fill="#c9efc7" data-fill-palette-color="secondary"></path><path d="M87.922 270.371v0c-3.159-1.336-5.303-3.235-6.431-5.695-1.131-2.455-0.993-5.343 0.412-8.665v0c1.441-3.407 3.471-5.549 6.088-6.425 2.624-0.874 5.534-0.635 8.729 0.717v0c3.08 1.303 5.196 3.175 6.347 5.616 1.157 2.444 1.051 5.282-0.316 8.514v0c-1.426 3.371-3.441 5.547-6.047 6.528-2.599 0.984-5.527 0.787-8.782-0.59zM90.036 265.904v0c1.374 0.581 2.593 0.59 3.659 0.028 1.065-0.562 2.037-1.882 2.915-3.958v0c0.837-1.979 1.073-3.524 0.708-4.634-0.365-1.11-1.244-1.96-2.636-2.549v0c-1.337-0.566-2.575-0.575-3.712-0.028-1.143 0.544-2.128 1.793-2.955 3.747v0c-0.865 2.046-1.106 3.635-0.721 4.768 0.382 1.139 1.296 2.014 2.742 2.626z" fill="#c9efc7" data-fill-palette-color="secondary"></path><path d="M113.511 278.212v0c-1.426-0.276-2.586-0.628-3.48-1.056-0.896-0.421-1.594-0.858-2.095-1.309-0.503-0.445-0.888-0.841-1.156-1.188v0c-0.195-0.272-0.172-0.529 0.069-0.77v0l2.628-2.633c0.379-0.368 0.72-0.329 1.022 0.118v0c0.315 0.449 0.767 0.912 1.357 1.387 0.596 0.484 1.387 0.821 2.375 1.012v0c0.884 0.171 1.638 0.163 2.263-0.023 0.62-0.194 0.986-0.579 1.097-1.153v0c0.077-0.4 0.015-0.75-0.188-1.05-0.202-0.307-0.599-0.655-1.193-1.045-0.587-0.388-1.415-0.903-2.482-1.545v0c-1.578-0.942-2.715-1.928-3.412-2.96-0.702-1.04-0.891-2.395-0.568-4.065v0c0.297-1.535 0.965-2.701 2.003-3.498 1.031-0.797 2.255-1.29 3.669-1.477 1.415-0.188 2.842-0.142 4.281 0.136v0c1.832 0.355 3.087 0.772 3.763 1.251 0.676 0.486 1.102 0.843 1.279 1.071v0c0.166 0.213 0.266 0.44 0.3 0.681v0c0.073 0.556 0.075 1.27 0.007 2.14v0c-0.045 0.507-0.234 0.811-0.569 0.913v0c-0.179 0.059-0.453 0.11-0.822 0.152-0.368 0.036-0.735 0.062-1.1 0.079-0.363 0.01-0.632-0.002-0.806-0.036v0c-0.052-0.01-0.103-0.037-0.155-0.08-0.052-0.044-0.139-0.147-0.261-0.312v0c-0.14-0.208-0.398-0.465-0.774-0.772-0.382-0.308-0.938-0.533-1.667-0.675v0c-0.723-0.14-1.351-0.141-1.886-0.004-0.529 0.139-0.85 0.501-0.964 1.089v0c-0.125 0.645 0.091 1.189 0.648 1.631 0.558 0.436 1.504 1.048 2.837 1.835v0c1.047 0.605 1.943 1.216 2.686 1.835 0.742 0.626 1.27 1.354 1.585 2.185 0.308 0.829 0.341 1.87 0.098 3.121v0c-0.316 1.632-1.016 2.859-2.098 3.68-1.076 0.822-2.348 1.322-3.815 1.499-1.474 0.183-2.966 0.128-4.476-0.164z" fill="#c9efc7" data-fill-palette-color="secondary"></path><path d="M138.149 266.25l0.001 12.665c0 0.407-0.085 0.69-0.256 0.848-0.171 0.158-0.46 0.237-0.867 0.237v0l-4.209 0c-0.407 0-0.697-0.079-0.868-0.236-0.171-0.158-0.256-0.44-0.256-0.848v0l-0.003-27.598c0-0.329 0.069-0.582 0.207-0.759v0c0.572-0.749 1.409-1.557 2.513-2.425v0c0.191-0.138 0.361-0.207 0.513-0.207v0c0.171 0 0.338 0.069 0.502 0.207v0c0.585 0.447 1.078 0.867 1.479 1.261 0.401 0.394 0.746 0.782 1.035 1.163v0c0.138 0.177 0.207 0.43 0.207 0.759v0l0.001 9.896 0.079 0c0.296-0.401 0.683-0.802 1.163-1.202 0.473-0.401 1.107-0.736 1.902-1.006 0.795-0.269 1.814-0.404 3.056-0.404v0c1.248 0 2.451 0.256 3.607 0.768 1.157 0.519 2.103 1.39 2.839 2.612 0.736 1.222 1.104 2.894 1.104 5.016v0l0.002 11.917c0 0.407-0.085 0.69-0.256 0.847-0.171 0.158-0.46 0.237-0.868 0.237v0l-4.208 0.001c-0.407 0-0.693-0.079-0.858-0.237-0.171-0.158-0.256-0.44-0.256-0.848v0l-0.002-10.792c0-1.511-0.316-2.609-0.946-3.292-0.624-0.69-1.472-1.035-2.543-1.035v0c-1.064 0-1.889 0.233-2.474 0.7-0.585 0.46-1.032 1.045-1.34 1.755z" fill="#c9efc7" data-fill-palette-color="secondary"></path><path d="M176.841 252.12l7.316 18.676c0.149 0.379 0.178 0.671 0.089 0.876-0.089 0.204-0.318 0.378-0.685 0.522v0l-3.818 1.496c-0.355 0.139-0.638 0.165-0.848 0.078-0.21-0.087-0.39-0.32-0.538-0.7v0l-9.426-24.063c-0.295-0.753-0.362-1.358-0.203-1.815 0.151-0.461 0.594-0.836 1.327-1.124v0l1.772-0.693c0.649-0.254 1.294-0.408 1.936-0.462 0.64-0.06 1.405 0.081 2.294 0.424 0.881 0.339 2 0.963 3.358 1.871 1.358 0.908 3.073 2.198 5.147 3.87v0c1.978 1.589 3.565 2.859 4.762 3.808 1.198 0.949 2.118 1.669 2.762 2.157 0.646 0.495 1.12 0.842 1.423 1.041 0.306 0.205 0.558 0.371 0.756 0.498v0l-6.28-16.033c-0.144-0.367-0.195-0.668-0.153-0.904v0c0.216-1.052 0.624-2.227 1.222-3.527v0c0.13-0.227 0.259-0.366 0.388-0.416v0c0.141-0.055 0.324-0.039 0.549 0.049v0c0.703 0.282 1.32 0.57 1.851 0.863 0.531 0.293 1.012 0.592 1.442 0.896v0c0.195 0.156 0.363 0.412 0.501 0.767v0l8.862 22.622c0.223 0.569 0.272 1.019 0.147 1.35-0.121 0.322-0.466 0.595-1.034 0.818v0l-1.826 0.716c-0.545 0.213-1.137 0.34-1.778 0.379-0.641 0.039-1.451-0.127-2.429-0.499-0.976-0.366-2.227-1.047-3.754-2.044-1.533-0.994-3.465-2.415-5.798-4.26v0c-1.973-1.577-3.547-2.831-4.723-3.761-1.173-0.924-2.065-1.622-2.673-2.096-0.607-0.468-1.041-0.792-1.302-0.972-0.263-0.186-0.475-0.322-0.636-0.408z" fill="#c9efc7" data-fill-palette-color="secondary"></path><path d="M221.687 252.279v0c-1.848 1.368-3.678 2.26-5.487 2.676-1.81 0.416-3.557 0.275-5.243-0.423-1.68-0.702-3.258-2.048-4.732-4.04v0c-2.209-2.984-3.117-5.807-2.724-8.468 0.402-2.66 1.87-4.928 4.405-6.805v0c1.653-1.224 3.267-1.965 4.842-2.223 1.584-0.257 3.057-0.084 4.418 0.519 1.363 0.593 2.539 1.558 3.528 2.894v0c0.962 1.299 1.301 2.454 1.019 3.464-0.286 1.005-1.068 1.98-2.346 2.927v0l-7.035 5.207c0.917 1.062 1.964 1.616 3.142 1.66 1.177 0.044 2.4-0.403 3.667-1.341v0c1.003-0.743 1.697-1.49 2.082-2.24 0.385-0.751 0.631-1.301 0.74-1.651v0c0.098-0.31 0.28-0.555 0.546-0.736v0c0.211-0.156 0.539-0.338 0.984-0.544 0.453-0.205 0.95-0.34 1.49-0.405v0c0.38-0.061 0.664 0.036 0.852 0.29v0c0.106 0.143 0.228 0.363 0.367 0.66v0c0.076 0.181 0.185 0.443 0.326 0.789 0.136 0.349 0.239 0.693 0.311 1.033v0c0.017 0.167-0.004 0.359-0.065 0.575v0c-0.103 0.313-0.304 0.777-0.602 1.39-0.302 0.608-0.803 1.322-1.504 2.143-0.699 0.812-1.693 1.695-2.981 2.649zM209.806 244.678v0l5.347-3.959c0.56-0.414 0.648-0.88 0.265-1.398v0c-0.575-0.776-1.3-1.249-2.177-1.417-0.881-0.174-1.81 0.101-2.787 0.824v0c-1.056 0.782-1.583 1.699-1.58 2.752 0.004 1.044 0.315 2.109 0.932 3.198z" fill="#c9efc7" data-fill-palette-color="secondary"></path><path d="M227.585 215.891v0c1.3-1.499 2.707-2.444 4.221-2.836 1.519-0.387 3.073-0.309 4.663 0.234 1.59 0.544 3.144 1.475 4.663 2.792v0c1.643 1.425 2.879 2.989 3.708 4.691 0.829 1.702 1.157 3.43 0.983 5.184-0.169 1.759-0.952 3.445-2.351 5.058v0c-0.723 0.834-1.416 1.437-2.08 1.811-0.654 0.372-1.254 0.608-1.801 0.708-0.538 0.099-0.996 0.145-1.374 0.139v0l-0.051 0.06 6.567 5.696c0.248 0.215 0.394 0.433 0.438 0.654v0c0.186 0.918 0.248 2.081 0.184 3.487v0c-0.021 0.234-0.078 0.406-0.173 0.515v0c-0.108 0.124-0.272 0.208-0.492 0.252v0c-0.721 0.149-1.361 0.246-1.922 0.29-0.565 0.04-1.084 0.047-1.556 0.02v0c-0.224-0.012-0.461-0.126-0.709-0.341v0l-19.002-16.482c-0.248-0.215-0.394-0.433-0.437-0.653v0c-0.098-0.468-0.165-0.983-0.201-1.544-0.035-0.561-0.03-1.209 0.016-1.944v0c0.012-0.224 0.08-0.409 0.205-0.552v0c0.116-0.134 0.289-0.228 0.518-0.282v0c0.708-0.134 1.351-0.224 1.93-0.269 0.575-0.041 1.127-0.036 1.657 0.015v0l0.071-0.082c-0.063-0.359-0.093-0.85-0.09-1.475 0.007-0.629 0.177-1.377 0.511-2.244 0.344-0.868 0.978-1.835 1.904-2.902zM238.559 228.736v0c0.964-1.112 1.324-2.309 1.079-3.591-0.25-1.287-1.109-2.567-2.578-3.841v0c-2.775-2.407-5.15-2.471-7.127-0.193v0c-0.84 0.968-1.261 1.855-1.264 2.661-0.003 0.806 0.132 1.498 0.406 2.074v0l3.343 2.9c0.998 0.865 2.051 1.331 3.159 1.397 1.118 0.065 2.112-0.404 2.982-1.407z" fill="#c9efc7" data-fill-palette-color="secondary"></path><path d="M257.465 210.366v0c-0.941 1.762-2.184 2.897-3.729 3.405-1.545 0.508-3.187 0.298-4.926-0.63v0c-0.898-0.48-1.648-1.092-2.249-1.837-0.598-0.736-0.975-1.675-1.132-2.817-0.152-1.139-0.011-2.546 0.421-4.222 0.43-1.67 1.229-3.675 2.397-6.017v0c-1.09-0.582-2.021-0.729-2.792-0.44-0.775 0.294-1.454 0.986-2.036 2.075v0c-0.526 0.985-0.787 1.878-0.782 2.678 0.002 0.806 0.022 1.319 0.061 1.54v0c0.055 0.245 0.002 0.478-0.16 0.697v0c-0.225 0.297-0.494 0.597-0.805 0.9-0.317 0.3-0.666 0.62-1.048 0.96v0c-0.054 0.046-0.127 0.092-0.22 0.139-0.095 0.039-0.198 0.036-0.309-0.008v0c-0.064-0.034-0.136-0.08-0.216-0.138-0.087-0.061-0.236-0.178-0.45-0.352v0c-0.216-0.182-0.475-0.414-0.779-0.695-0.301-0.287-0.525-0.523-0.674-0.706v0c-0.144-0.218-0.239-0.5-0.286-0.846v0c-0.06-0.293 0-1.054 0.181-2.283 0.18-1.23 0.793-2.824 1.839-4.784v0c2.875-5.385 6.933-6.678 12.173-3.88v0l10.19 5.44c0.226 0.121 0.388 0.285 0.485 0.494 0.094 0.214 0.061 0.472-0.1 0.774v0l-1.44 2.695c-0.102 0.191-0.22 0.348-0.352 0.471-0.138 0.12-0.322 0.205-0.549 0.254v0l-2.029 0.347-0.069 0.131c0.512 0.981 0.7 2.031 0.563 3.15-0.139 1.125-0.532 2.293-1.178 3.505zM254.35 206.155v0c0.588-1.101 0.748-2.085 0.48-2.95-0.259-0.868-0.648-1.542-1.167-2.02v0l-1.991-1.063c-0.891 1.669-1.432 2.989-1.623 3.96-0.185 0.974-0.144 1.707 0.122 2.199 0.263 0.498 0.635 0.875 1.116 1.132v0c0.696 0.371 1.294 0.415 1.795 0.132 0.505-0.289 0.927-0.753 1.268-1.39z" fill="#c9efc7" data-fill-palette-color="secondary"></path><path d="M267.296 182.271l0.493 4.658c0.026 0.314 0.021 0.527-0.017 0.639v0c-0.04 0.118-0.125 0.228-0.256 0.329v0c-0.31 0.222-0.931 0.387-1.862 0.498-0.933 0.116-2.238-0.107-3.913-0.671v0l-22.395-7.526c-0.311-0.105-0.529-0.251-0.654-0.437v0c-0.528-0.781-1.027-1.832-1.498-3.155v0c-0.07-0.225-0.081-0.409-0.033-0.552v0c0.054-0.162 0.173-0.299 0.357-0.411v0c0.61-0.412 1.165-0.745 1.667-0.999 0.501-0.254 0.979-0.458 1.432-0.611v0c0.212-0.074 0.474-0.059 0.785 0.046v0l21.208 7.127c0.853 0.287 1.602 0.462 2.246 0.526 0.646 0.058 1.182 0.051 1.609-0.021v0c0.503-0.074 0.78 0.113 0.831 0.56z" fill="#c9efc7" data-fill-palette-color="secondary"></path></g></svg></g></svg></g></svg></g></svg></g><defs></defs></svg><rect width="280" height="280" fill="none" stroke="none" visibility="hidden"></rect></g></svg></g></svg>